%TF.GenerationSoftware,KiCad,Pcbnew,(6.0.5-0)*%
%TF.CreationDate,2022-07-24T23:08:50-05:00*%
%TF.ProjectId,hps-schematic-2.0,6870732d-7363-4686-956d-617469632d32,rev?*%
%TF.SameCoordinates,PX4c4db10PY8a12ae0*%
%TF.FileFunction,Paste,Top*%
%TF.FilePolarity,Positive*%
%FSLAX46Y46*%
G04 Gerber Fmt 4.6, Leading zero omitted, Abs format (unit mm)*
G04 Created by KiCad (PCBNEW (6.0.5-0)) date 2022-07-24 23:08:50*
%MOMM*%
%LPD*%
G01*
G04 APERTURE LIST*
G04 Aperture macros list*
%AMRoundRect*
0 Rectangle with rounded corners*
0 $1 Rounding radius*
0 $2 $3 $4 $5 $6 $7 $8 $9 X,Y pos of 4 corners*
0 Add a 4 corners polygon primitive as box body*
4,1,4,$2,$3,$4,$5,$6,$7,$8,$9,$2,$3,0*
0 Add four circle primitives for the rounded corners*
1,1,$1+$1,$2,$3*
1,1,$1+$1,$4,$5*
1,1,$1+$1,$6,$7*
1,1,$1+$1,$8,$9*
0 Add four rect primitives between the rounded corners*
20,1,$1+$1,$2,$3,$4,$5,0*
20,1,$1+$1,$4,$5,$6,$7,0*
20,1,$1+$1,$6,$7,$8,$9,0*
20,1,$1+$1,$8,$9,$2,$3,0*%
G04 Aperture macros list end*
%ADD10R,1.400000X1.150000*%
%ADD11R,1.150000X1.400000*%
%ADD12R,3.050000X2.750000*%
%ADD13R,2.200000X1.200000*%
%ADD14R,1.400000X1.600000*%
%ADD15RoundRect,0.243750X-0.243750X-0.456250X0.243750X-0.456250X0.243750X0.456250X-0.243750X0.456250X0*%
%ADD16R,1.800000X1.000000*%
%ADD17R,4.500000X2.000000*%
G04 APERTURE END LIST*
D10*
%TO.C,R6*%
X39370000Y5930000D03*
X39370000Y4230000D03*
%TD*%
D11*
%TO.C,C3*%
X64750000Y10160000D03*
X66450000Y10160000D03*
%TD*%
%TO.C,C7*%
X19900000Y22860000D03*
X18200000Y22860000D03*
%TD*%
%TO.C,C1*%
X71550000Y25400000D03*
X69850000Y25400000D03*
%TD*%
D10*
%TO.C,R7*%
X36830000Y5930000D03*
X36830000Y4230000D03*
%TD*%
%TO.C,R10*%
X24130000Y42330000D03*
X24130000Y44030000D03*
%TD*%
D11*
%TO.C,R3*%
X90170000Y73660000D03*
X88470000Y73660000D03*
%TD*%
%TO.C,R4*%
X122340000Y7620000D03*
X124040000Y7620000D03*
%TD*%
D12*
%TO.C,U2(POWER)1*%
X13915000Y25400000D03*
X13915000Y22350000D03*
X10565000Y25400000D03*
X10565000Y22350000D03*
D13*
X5940000Y26155000D03*
X5940000Y21595000D03*
%TD*%
D10*
%TO.C,C5*%
X41910000Y4230000D03*
X41910000Y5930000D03*
%TD*%
%TO.C,R8*%
X44450000Y21170000D03*
X44450000Y19470000D03*
%TD*%
%TO.C,C9*%
X3810000Y49950000D03*
X3810000Y51650000D03*
%TD*%
D11*
%TO.C,C4*%
X85940000Y10160000D03*
X84240000Y10160000D03*
%TD*%
D14*
%TO.C,HOUR1*%
X57440000Y77280000D03*
X57440000Y85280000D03*
X61940000Y77280000D03*
X61940000Y85280000D03*
%TD*%
D10*
%TO.C,C8*%
X3810000Y45353078D03*
X3810000Y43653078D03*
%TD*%
D11*
%TO.C,R1*%
X78320000Y73660000D03*
X76620000Y73660000D03*
%TD*%
%TO.C,R5*%
X106260000Y73660000D03*
X104560000Y73660000D03*
%TD*%
D14*
%TO.C,UTILITY1*%
X82840000Y77280000D03*
X82840000Y85280000D03*
X87340000Y77280000D03*
X87340000Y85280000D03*
%TD*%
D15*
%TO.C,D1*%
X122252500Y10160000D03*
X124127500Y10160000D03*
%TD*%
D11*
%TO.C,R2*%
X65620000Y73660000D03*
X63920000Y73660000D03*
%TD*%
D14*
%TO.C,RESET1*%
X98080000Y77280000D03*
X98080000Y85280000D03*
X102580000Y77280000D03*
X102580000Y85280000D03*
%TD*%
%TO.C,MINUTE1*%
X70140000Y77280000D03*
X70140000Y85280000D03*
X74640000Y77280000D03*
X74640000Y85280000D03*
%TD*%
D10*
%TO.C,R9*%
X41910000Y24560000D03*
X41910000Y22860000D03*
%TD*%
D16*
%TO.C,Y1*%
X26670000Y24150000D03*
X26670000Y26650000D03*
%TD*%
D11*
%TO.C,C6*%
X19900000Y25400000D03*
X18200000Y25400000D03*
%TD*%
D10*
%TO.C,C2*%
X62230000Y11010000D03*
X62230000Y9310000D03*
%TD*%
D17*
%TO.C,CRYSTAL1*%
X70680000Y10160000D03*
X79180000Y10160000D03*
%TD*%
M02*
