M48
; DRILL file {KiCad (6.0.5-0)} date Thursday, July 21, 2022 at 09:12:29 PM
; FORMAT={-:-/ absolute / inch / decimal}
; #@! TF.CreationDate,2022-07-21T21:12:29-05:00
; #@! TF.GenerationSoftware,Kicad,Pcbnew,(6.0.5-0)
; #@! TF.FileFunction,MixedPlating,1,2
FMAT,2
INCH
; #@! TA.AperFunction,Plated,PTH,ViaDrill
T1C0.0160
; #@! TA.AperFunction,Plated,PTH,ComponentDrill
T2C0.0315
; #@! TA.AperFunction,Plated,PTH,ComponentDrill
T3C0.0354
; #@! TA.AperFunction,Plated,PTH,ComponentDrill
T4C0.0394
; #@! TA.AperFunction,Plated,PTH,ComponentDrill
T5C0.0591
; #@! TA.AperFunction,NonPlated,NPTH,ComponentDrill
T6C0.1260
%
G90
G05
T1
X0.15Y2.1
X0.15Y1.6
X0.25Y2.7
X0.35Y2.0
X0.35Y1.5
X0.45Y2.5
X0.6469Y1.072
X0.65Y1.0
X0.65Y0.9
X0.65Y0.6
X0.85Y1.8
X0.85Y1.7
X0.85Y1.1
X0.95Y1.6
X1.05Y2.4
X1.05Y2.0
X1.05Y1.8
X1.05Y1.7
X1.05Y0.7
X1.15Y0.5
X1.15Y0.3
X1.25Y0.3
X1.35Y2.2
X1.35Y2.0
X1.85Y0.9
X2.05Y0.2
X2.15Y3.3
X2.15Y3.0
X2.15Y2.7
X2.15Y0.2
X2.25Y0.1
X2.35Y0.4
X2.45Y2.9
X2.45Y2.0
X2.45Y1.2
X2.45Y0.3
X2.45Y0.1
X2.55Y0.3
X2.65Y3.3
X2.65Y3.0
X2.75Y2.8
X2.75Y1.3
X2.85Y1.1
X2.95Y2.9
X2.95Y2.2
X3.05Y2.5
X3.05Y2.4
X3.15Y3.3
X3.15Y3.0
X3.25Y1.2
X3.25Y1.1
X3.35Y0.8
X3.45Y0.4
X3.65Y0.1
X3.75Y3.3
X3.75Y3.0
X3.95Y1.8
X3.95Y0.5
X4.05Y0.7
X4.85Y0.9
X4.8869Y0.4
X4.95Y0.3
T2
X0.45Y2.3502
X0.45Y2.2502
X0.45Y2.1502
X0.45Y2.0502
X0.45Y1.9502
X0.45Y1.8502
X0.45Y1.7502
X0.45Y1.6502
X0.45Y1.5502
X0.45Y1.4502
X0.45Y1.3502
X0.45Y1.2502
X0.75Y2.3502
X0.75Y2.2502
X0.75Y2.1502
X0.75Y2.0502
X0.75Y1.9502
X0.75Y1.8502
X0.75Y1.7502
X0.75Y1.6502
X0.75Y1.5502
X0.75Y1.4502
X0.75Y1.3502
X0.75Y1.2502
X1.2004Y1.0496
X1.2004Y0.9496
X1.2004Y0.8496
X1.2004Y0.7496
X1.5004Y1.0496
X1.5004Y0.9496
X1.5004Y0.8496
X1.5004Y0.7496
X2.1004Y0.8504
X2.1004Y0.5504
X2.2004Y0.8504
X2.2004Y0.5504
X2.3004Y0.8504
X2.3004Y0.5504
X2.4004Y0.8504
X2.4004Y0.5504
X2.5004Y0.8504
X2.5004Y0.5504
X2.6004Y0.8504
X2.6004Y0.5504
X2.7004Y0.8504
X2.7004Y0.5504
X2.8004Y0.8504
X2.8004Y0.5504
X2.9004Y0.8504
X2.9004Y0.5504
X3.0004Y0.8504
X3.0004Y0.5504
X3.1004Y0.8504
X3.1004Y0.5504
X3.2004Y0.8504
X3.2004Y0.5504
X3.3004Y0.8504
X3.3004Y0.5504
X3.4004Y0.8504
X3.4004Y0.5504
T3
X2.45Y2.1
X2.45Y1.5
X2.55Y2.1
X2.55Y1.5
X2.65Y2.1
X2.65Y1.5
X2.75Y2.1
X2.75Y1.5
X2.85Y2.1
X2.85Y1.5
X2.95Y2.1
X2.95Y1.5
X3.05Y2.1
X3.05Y1.5
T4
X0.15Y1.4
X0.25Y2.6
X1.05Y0.8
X1.15Y0.4
X1.25Y0.4
X1.35Y0.4
X1.45Y0.4
X1.55Y0.4
X1.65Y0.4
X2.05Y1.0
X2.25Y1.0
X2.55Y1.0
X2.65Y0.2
X3.15Y0.2
X3.35Y1.2
X3.35Y1.1
X3.35Y0.2
X3.45Y1.2
X3.45Y1.1
X3.55Y1.2
X3.55Y1.1
X3.85Y0.5
X3.91Y1.04
T5
X4.2433Y1.8
X5.05Y1.8
T6
X0.1965Y3.3378
X0.1965Y0.1882
X5.3146Y3.3378
X5.3146Y0.1882
T4
G00X0.3992Y0.7378
M15
G01X0.3008Y0.7378
M16
G05
G00X0.4602Y0.5409
M15
G01X0.4602Y0.4622
M16
G05
G00X0.5587Y0.6866
M15
G01X0.5587Y0.6079
M16
G05
T0
M30
