%TF.GenerationSoftware,KiCad,Pcbnew,(6.0.5-0)*%
%TF.CreationDate,2022-07-21T21:11:39-05:00*%
%TF.ProjectId,hps-schematic-2.0,6870732d-7363-4686-956d-617469632d32,rev?*%
%TF.SameCoordinates,PX4c4db10PY8a12ae0*%
%TF.FileFunction,Legend,Bot*%
%TF.FilePolarity,Positive*%
%FSLAX46Y46*%
G04 Gerber Fmt 4.6, Leading zero omitted, Abs format (unit mm)*
G04 Created by KiCad (PCBNEW (6.0.5-0)) date 2022-07-21 21:11:39*
%MOMM*%
%LPD*%
G01*
G04 APERTURE LIST*
G04 Aperture macros list*
%AMRoundRect*
0 Rectangle with rounded corners*
0 $1 Rounding radius*
0 $2 $3 $4 $5 $6 $7 $8 $9 X,Y pos of 4 corners*
0 Add a 4 corners polygon primitive as box body*
4,1,4,$2,$3,$4,$5,$6,$7,$8,$9,$2,$3,0*
0 Add four circle primitives for the rounded corners*
1,1,$1+$1,$2,$3*
1,1,$1+$1,$4,$5*
1,1,$1+$1,$6,$7*
1,1,$1+$1,$8,$9*
0 Add four rect primitives between the rounded corners*
20,1,$1+$1,$2,$3,$4,$5,0*
20,1,$1+$1,$4,$5,$6,$7,0*
20,1,$1+$1,$6,$7,$8,$9,0*
20,1,$1+$1,$8,$9,$2,$3,0*%
G04 Aperture macros list end*
%ADD10C,0.150000*%
%ADD11C,0.120000*%
%ADD12C,3.200000*%
%ADD13R,1.600000X1.600000*%
%ADD14O,1.600000X1.600000*%
%ADD15C,2.000000*%
%ADD16O,1.700000X1.700000*%
%ADD17R,1.700000X1.700000*%
%ADD18R,1.400000X1.400000*%
%ADD19C,1.400000*%
%ADD20RoundRect,0.500000X1.750000X0.500000X-1.750000X0.500000X-1.750000X-0.500000X1.750000X-0.500000X0*%
%ADD21RoundRect,0.500000X-0.500000X1.500000X-0.500000X-1.500000X0.500000X-1.500000X0.500000X1.500000X0*%
%ADD22R,3.000000X3.000000*%
%ADD23C,3.000000*%
G04 APERTURE END LIST*
D10*
%TO.C,J1(POWER)1*%
X20533809Y8167620D02*
X20533809Y7453334D01*
X20581428Y7310477D01*
X20676666Y7215239D01*
X20819523Y7167620D01*
X20914761Y7167620D01*
X19533809Y7167620D02*
X20105238Y7167620D01*
X19819523Y7167620D02*
X19819523Y8167620D01*
X19914761Y8024762D01*
X20010000Y7929524D01*
X20105238Y7881905D01*
X18819523Y6786667D02*
X18867142Y6834286D01*
X18962380Y6977143D01*
X19010000Y7072381D01*
X19057619Y7215239D01*
X19105238Y7453334D01*
X19105238Y7643810D01*
X19057619Y7881905D01*
X19010000Y8024762D01*
X18962380Y8120000D01*
X18867142Y8262858D01*
X18819523Y8310477D01*
X18438571Y7167620D02*
X18438571Y8167620D01*
X18057619Y8167620D01*
X17962380Y8120000D01*
X17914761Y8072381D01*
X17867142Y7977143D01*
X17867142Y7834286D01*
X17914761Y7739048D01*
X17962380Y7691429D01*
X18057619Y7643810D01*
X18438571Y7643810D01*
X17248095Y8167620D02*
X17057619Y8167620D01*
X16962380Y8120000D01*
X16867142Y8024762D01*
X16819523Y7834286D01*
X16819523Y7500953D01*
X16867142Y7310477D01*
X16962380Y7215239D01*
X17057619Y7167620D01*
X17248095Y7167620D01*
X17343333Y7215239D01*
X17438571Y7310477D01*
X17486190Y7500953D01*
X17486190Y7834286D01*
X17438571Y8024762D01*
X17343333Y8120000D01*
X17248095Y8167620D01*
X16486190Y8167620D02*
X16248095Y7167620D01*
X16057619Y7881905D01*
X15867142Y7167620D01*
X15629047Y8167620D01*
X15248095Y7691429D02*
X14914761Y7691429D01*
X14771904Y7167620D02*
X15248095Y7167620D01*
X15248095Y8167620D01*
X14771904Y8167620D01*
X13771904Y7167620D02*
X14105238Y7643810D01*
X14343333Y7167620D02*
X14343333Y8167620D01*
X13962380Y8167620D01*
X13867142Y8120000D01*
X13819523Y8072381D01*
X13771904Y7977143D01*
X13771904Y7834286D01*
X13819523Y7739048D01*
X13867142Y7691429D01*
X13962380Y7643810D01*
X14343333Y7643810D01*
X13438571Y6786667D02*
X13390952Y6834286D01*
X13295714Y6977143D01*
X13248095Y7072381D01*
X13200476Y7215239D01*
X13152857Y7453334D01*
X13152857Y7643810D01*
X13200476Y7881905D01*
X13248095Y8024762D01*
X13295714Y8120000D01*
X13390952Y8262858D01*
X13438571Y8310477D01*
X12152857Y7167620D02*
X12724285Y7167620D01*
X12438571Y7167620D02*
X12438571Y8167620D01*
X12533809Y8024762D01*
X12629047Y7929524D01*
X12724285Y7881905D01*
%TO.C,BT1*%
X130305714Y50291429D02*
X130162857Y50243810D01*
X130115238Y50196191D01*
X130067619Y50100953D01*
X130067619Y49958096D01*
X130115238Y49862858D01*
X130162857Y49815239D01*
X130258095Y49767620D01*
X130639047Y49767620D01*
X130639047Y50767620D01*
X130305714Y50767620D01*
X130210476Y50720000D01*
X130162857Y50672381D01*
X130115238Y50577143D01*
X130115238Y50481905D01*
X130162857Y50386667D01*
X130210476Y50339048D01*
X130305714Y50291429D01*
X130639047Y50291429D01*
X129781904Y50767620D02*
X129210476Y50767620D01*
X129496190Y49767620D02*
X129496190Y50767620D01*
X128353333Y49767620D02*
X128924761Y49767620D01*
X128639047Y49767620D02*
X128639047Y50767620D01*
X128734285Y50624762D01*
X128829523Y50529524D01*
X128924761Y50481905D01*
X126091428Y45612858D02*
X124948571Y45612858D01*
X125520000Y45041429D02*
X125520000Y46184286D01*
D11*
%TO.C,J1(POWER)1*%
X4690000Y19740000D02*
X4690000Y10740000D01*
X15390000Y10740000D02*
X12640000Y10740000D01*
X15390000Y19740000D02*
X11140000Y19740000D01*
X4690000Y10740000D02*
X10640000Y10740000D01*
X15390000Y19740000D02*
X15390000Y10740000D01*
X4690000Y19740000D02*
X6640000Y19740000D01*
X12090000Y15240000D02*
G75*
G03*
X11152742Y17502742I-3199997J2D01*
G01*
X6590000Y17440000D02*
G75*
G03*
X10273705Y12373755I2300000J-2200000D01*
G01*
%TO.C,BT1*%
X129770000Y42670000D02*
X127320000Y42670000D01*
X127320000Y48770000D02*
X129770000Y48770000D01*
X130320000Y48220000D02*
X130320000Y43220000D01*
X103006557Y46235991D02*
G75*
G03*
X126620000Y42200000I12063443J-515991D01*
G01*
X129770000Y42670000D02*
G75*
G03*
X130320000Y43220000I1J549999D01*
G01*
X130320000Y48220000D02*
G75*
G03*
X129770000Y48770000I-549999J1D01*
G01*
X126620000Y49240000D02*
G75*
G03*
X103006557Y45204009I-11550000J-3520000D01*
G01*
X126615231Y49263485D02*
G75*
G03*
X127320000Y48770000I704769J256515D01*
G01*
X127320000Y42670000D02*
G75*
G03*
X126615231Y42176515I0J-750000D01*
G01*
%TD*%
%LPC*%
D12*
%TO.C,H4*%
X134990000Y4780000D03*
%TD*%
D13*
%TO.C,LED_MATRIX1*%
X11430000Y59695000D03*
D14*
X11430000Y57155000D03*
X11430000Y54615000D03*
X11430000Y52075000D03*
X11430000Y49535000D03*
X11430000Y46995000D03*
X11430000Y44455000D03*
X11430000Y41915000D03*
X11430000Y39375000D03*
X11430000Y36835000D03*
X11430000Y34295000D03*
X11430000Y31755000D03*
X19050000Y31755000D03*
X19050000Y34295000D03*
X19050000Y36835000D03*
X19050000Y39375000D03*
X19050000Y41915000D03*
X19050000Y44455000D03*
X19050000Y46995000D03*
X19050000Y49535000D03*
X19050000Y52075000D03*
X19050000Y54615000D03*
X19050000Y57155000D03*
X19050000Y59695000D03*
%TD*%
D13*
%TO.C,RTC1*%
X30490000Y26660000D03*
D14*
X30490000Y24120000D03*
X30490000Y21580000D03*
X30490000Y19040000D03*
X38110000Y19040000D03*
X38110000Y21580000D03*
X38110000Y24120000D03*
X38110000Y26660000D03*
%TD*%
D15*
%TO.C,TP8*%
X97790000Y12700000D03*
%TD*%
%TO.C,TP4*%
X52070000Y25400000D03*
%TD*%
D12*
%TO.C,H2*%
X134990000Y84780000D03*
%TD*%
%TO.C,H3*%
X4990000Y4780000D03*
%TD*%
D15*
%TO.C,TP9*%
X99315000Y26415000D03*
%TD*%
%TO.C,TP6*%
X64770000Y25400000D03*
%TD*%
%TO.C,TP2*%
X3810000Y35560000D03*
%TD*%
%TO.C,TP10*%
X26670000Y20320000D03*
%TD*%
D16*
%TO.C,J2*%
X41910000Y10160000D03*
X39370000Y10160000D03*
X36830000Y10160000D03*
X34290000Y10160000D03*
X31750000Y10160000D03*
D17*
X29210000Y10160000D03*
%TD*%
D12*
%TO.C,H1*%
X4990000Y84780000D03*
%TD*%
D15*
%TO.C,TP7*%
X80010000Y5080000D03*
%TD*%
D13*
%TO.C,ATMega1*%
X53350000Y13980000D03*
D14*
X55890000Y13980000D03*
X58430000Y13980000D03*
X60970000Y13980000D03*
X63510000Y13980000D03*
X66050000Y13980000D03*
X68590000Y13980000D03*
X71130000Y13980000D03*
X73670000Y13980000D03*
X76210000Y13980000D03*
X78750000Y13980000D03*
X81290000Y13980000D03*
X83830000Y13980000D03*
X86370000Y13980000D03*
X86370000Y21600000D03*
X83830000Y21600000D03*
X81290000Y21600000D03*
X78750000Y21600000D03*
X76210000Y21600000D03*
X73670000Y21600000D03*
X71130000Y21600000D03*
X68590000Y21600000D03*
X66050000Y21600000D03*
X63510000Y21600000D03*
X60970000Y21600000D03*
X58430000Y21600000D03*
X55890000Y21600000D03*
X53350000Y21600000D03*
%TD*%
D17*
%TO.C,J1*%
X85090000Y27940000D03*
D16*
X85090000Y30480000D03*
X87630000Y27940000D03*
X87630000Y30480000D03*
X90170000Y27940000D03*
X90170000Y30480000D03*
%TD*%
D15*
%TO.C,TP1*%
X6350000Y66040000D03*
%TD*%
D18*
%TO.C,DS1*%
X77470000Y53340000D03*
D19*
X74930000Y53340000D03*
X72390000Y53340000D03*
X69850000Y53340000D03*
X67310000Y53340000D03*
X64770000Y53340000D03*
X62230000Y53340000D03*
X62230000Y38100000D03*
X64770000Y38100000D03*
X67310000Y38100000D03*
X69850000Y38100000D03*
X72390000Y38100000D03*
X74930000Y38100000D03*
X77470000Y38100000D03*
%TD*%
D15*
%TO.C,TP3*%
X57150000Y25400000D03*
%TD*%
%TO.C,TP5*%
X85090000Y5080000D03*
%TD*%
%TO.C,TP11*%
X67310000Y5080000D03*
%TD*%
D20*
%TO.C,J1(POWER)1*%
X8890000Y18740000D03*
D21*
X14190000Y16440000D03*
X11690000Y12740000D03*
%TD*%
D22*
%TO.C,BT1*%
X128270000Y45720000D03*
D23*
X107780000Y45720000D03*
%TD*%
M02*
